<?xml version="1.0" ?><svg height="60px" version="1.1" viewBox="0 0 60 60" width="60px" xmlns="http://www.w3.org/2000/svg" xmlns:xlink="http://www.w3.org/1999/xlink"><title/><desc/><defs/><g fill="none" fill-rule="evenodd" id="Page-1" stroke="none" stroke-width="1"><g fill-rule="nonzero" id="019---Compass"><g id="Icons" transform="translate(1.000000, 1.000000)"><circle cx="29" cy="29" fill="#F96A59" id="Oval" r="29"/><circle cx="29" cy="29" fill="#FFFFFF" id="Oval" r="25"/><path d="M19.518,25.839 L13.861,16.6 C13.3846281,15.814625 13.5064043,14.8054377 14.155921,14.155921 C14.8054377,13.5064043 15.814625,13.3846281 16.6,13.861 L25.835,19.518 L19.518,25.839 Z" fill="#735EFF" id="Shape"/><path d="M38.482,32.161 L44.139,41.4 C44.6153719,42.185375 44.4935957,43.1945623 43.844079,43.844079 C43.1945623,44.4935957 42.185375,44.6153719 41.4,44.139 L32.165,38.482 L38.482,32.161 Z" fill="#735EFF" id="Shape"/><circle cx="29" cy="29" fill="#FFACAD" id="Oval" r="10"/><circle cx="29" cy="29" fill="#000000" id="Oval" r="4"/></g><g fill="#000000" id="Layer_10"><path d="M30,0.5 C13.7075999,0.5 0.5,13.7075999 0.5,30 C0.5,46.2924001 13.7075999,59.5 30,59.5 C46.2924001,59.5 59.5,46.2924001 59.5,30 C59.4818135,13.7151389 46.2848611,0.518186464 30,0.5 Z M30,58.5 C14.2598846,58.5 1.5,45.7401154 1.5,30 C1.5,14.2598846 14.2598846,1.5 30,1.5 C45.7401154,1.5 58.5,14.2598846 58.5,30 C58.4823648,45.7328048 45.7328048,58.4823648 30,58.5 Z" id="Shape"/><path d="M30,4.5 C15.9167389,4.5 4.5,15.9167389 4.5,30 C4.5,44.0832611 15.9167389,55.5 30,55.5 C44.0832611,55.5 55.5,44.0832611 55.5,30 C55.4840185,15.9233639 44.0766361,4.51598148 30,4.5 Z M30,54.5 C16.4690236,54.5 5.5,43.5309764 5.5,30 C5.5,16.4690236 16.4690236,5.5 30,5.5 C43.5309764,5.5 54.5,16.4690236 54.5,30 C54.4845698,43.5245798 43.5245798,54.4845698 30,54.5 Z" id="Shape"/><path d="M26.818,26.818 C25.0606565,28.575365 25.0606682,31.4245974 26.818026,33.181948 C28.5753838,34.9392987 31.4246162,34.9392987 33.181974,33.181948 C34.9393318,31.4245974 34.9393435,28.575365 33.182,26.818 C32.3380847,25.9740744 31.1934838,25.499961 30,25.499961 C28.8065162,25.499961 27.6619153,25.9740744 26.818,26.818 Z M32.475,32.475 C31.0885435,33.7938583 28.9114565,33.7938583 27.525,32.475 C26.1582676,31.1081281 26.158343,28.8921156 27.5251684,27.5253367 C28.8919937,26.1585578 31.1080063,26.1585578 32.4748316,27.5253367 C33.841657,28.8921156 33.8417324,31.1081281 32.475,32.475 Z" id="Shape"/><path d="M40.027,33.092 C41.1779139,29.3747179 40.1758555,25.3257745 37.4240291,22.5743676 C34.6722027,19.8229606 30.6231066,18.8215195 26.906,19.973 L17.865,14.435 C16.8815015,13.831019 15.612066,13.9807459 14.7960776,14.7969722 C13.9800892,15.6131985 13.8307323,16.8826776 14.435,17.866 L19.973,26.908 C18.8243768,30.6250172 19.8272278,34.6724569 22.5783966,37.4232063 C25.3295654,40.1739558 29.3771579,41.1761898 33.094,40.027 L42.135,45.565 C42.5293653,45.8106536 42.9843845,45.9415495 43.449,45.943 C44.3502922,45.9341735 45.1774151,45.4420112 45.6151247,44.6540925 C46.0528343,43.8661738 46.0336945,42.9038903 45.565,42.134 L40.027,33.092 Z M15.288,17.343 C14.9265351,16.7535925 15.0164009,15.9932129 15.5053069,15.5043069 C15.9942129,15.0154009 16.7545925,14.9255351 17.344,15.287 L25.725,20.421 C23.3572094,21.4619853 21.4659853,23.3532094 20.425,25.721 L15.288,17.343 Z M23.282,36.718 C19.5724138,33.0078775 19.5727037,26.9930599 23.2826474,23.2832949 C26.9925912,19.57353 33.0074088,19.57353 36.7173526,23.2832949 C40.4272963,26.9930599 40.4275862,33.0078775 36.718,36.718 C33.0047157,40.4209138 26.9952843,40.4209138 23.282,36.718 Z M44.5,44.5 C44.0162619,45.0005916 43.2469211,45.0913237 42.66,44.717 L34.279,39.583 C36.6467906,38.5420147 38.5380147,36.6507906 39.579,34.283 L44.713,42.665 C45.0875837,43.2494495 44.9985015,44.016895 44.5,44.5 Z" id="Shape"/><path d="M30,13.5 C30.2761424,13.5 30.5,13.2761424 30.5,13 L30.5,9 C30.5,8.72385763 30.2761424,8.5 30,8.5 C29.7238576,8.5 29.5,8.72385763 29.5,9 L29.5,13 C29.5,13.2761424 29.7238576,13.5 30,13.5 Z" id="Shape"/><path d="M30,46.5 C29.7238576,46.5 29.5,46.7238576 29.5,47 L29.5,51 C29.5,51.2761424 29.7238576,51.5 30,51.5 C30.2761424,51.5 30.5,51.2761424 30.5,51 L30.5,47 C30.5,46.7238576 30.2761424,46.5 30,46.5 Z" id="Shape"/><path d="M13,29.5 L9,29.5 C8.72385763,29.5 8.5,29.7238576 8.5,30 C8.5,30.2761424 8.72385763,30.5 9,30.5 L13,30.5 C13.2761424,30.5 13.5,30.2761424 13.5,30 C13.5,29.7238576 13.2761424,29.5 13,29.5 Z" id="Shape"/><path d="M46.5,30 C46.5,30.2761424 46.7238576,30.5 47,30.5 L51,30.5 C51.2761424,30.5 51.5,30.2761424 51.5,30 C51.5,29.7238576 51.2761424,29.5 51,29.5 L47,29.5 C46.7238576,29.5 46.5,29.7238576 46.5,30 Z" id="Shape"/></g></g></g></svg>